<svg xmlns="http://www.w3.org/2000/svg" viewBox="0 0 764 90.74"><title>Asset 3</title><g id="Layer_2" data-name="Layer 2"><g id="Layer_1-2" data-name="Layer 1"><path d="M51.47,25.07c5.66,0,6.66,3.44,9.54,3.44,1.33,0,2-.89,2-2.77,0-2.78-5-6.55-12.2-6.55-13.87,0-23.63,10.87-23.63,30.29,0,14.64,3.55,23.18,17.64,23.18,7.54,0,14.08-4.33,14.08-10,0-1.89-.77-3.55-.77-4.77,0-1.78,1.11-4,3.55-4,3.33,0,4.21,1.89,4.21,4.66,0,19.64-9,31.17-32.61,31.17C11.54,89.74,1,79.87,1,59.13,1,27.4,18,10.32,42.82,10.32c19.08,0,27.51,8.43,27.51,19.85,0,9.65-6,19.42-17.08,19.42-7,0-12.76-3.44-12.76-12.09C40.49,31.06,43.49,25.07,51.47,25.07Z" style="fill:none;stroke:#010101;stroke-width:2px"/><path d="M99.58,89.08c-19.74,0-27.84-9.76-27.84-25.41,0-22.4,11.31-37.93,33.94-37.93,14.65,0,26.63,7.87,26.63,27.29C132.31,73,126.65,89.08,99.58,89.08Zm11.76-45.59c0-8.1-1.89-11-5.55-11-7,0-12.09,14-12.09,36.28,0,6.21,1.78,9.32,6.33,9.32C108.12,78.1,111.34,62.23,111.34,43.49Z" style="fill:none;stroke:#010101;stroke-width:2px"/><path d="M173.52,74.88c9,0,11.86-3.11,11.86-7.54,0-1-.11-1.89-.11-2.56,0-1.88.89-3.66,3.55-3.66s3.44,1.67,3.44,4.22c0,14.31-7.32,24.29-27.17,24.29-17.42,0-29.18-6.88-29.18-25.18,0-22.52,13.09-38.71,36.39-38.71,16.52,0,22,6.32,22,16.64,0,7.43-3.77,14.42-13.76,14.42-6.87,0-10.09-3.22-10.09-8.32,0-5.88,3.77-8.54,8.1-9.54,3.1-.67,4.1-1.56,4.1-3.11s-1-2.88-5.88-2.88c-9.76,0-18.86,8.65-18.86,28.28C157.87,70.89,162.53,74.88,173.52,74.88Z" style="fill:none;stroke:#010101;stroke-width:2px"/><path d="M233.76,60.46a1.67,1.67,0,0,0-1.55,1.66,1.4,1.4,0,0,0,1.55,1.55c2.66,0,5.66-.88,10.21-.88,6.43,0,11.2,2.77,11.2,7.43,0,2-.22,4.44-.22,6,0,1.77.89,2.22,2.66,2.22a3.26,3.26,0,0,0,3.22-2.55,18.31,18.31,0,0,0,.77-3.33c.34-1.78,1.11-2.66,2.67-2.66s3,.88,3,4.1c0,9.87-6.43,15.09-18.41,15.09-11.43,0-14.2-4-14.2-10,0-3.21.55-6.43.55-8.76,0-2.88-1.88-4.33-5.43-4.33-2.78,0-3.88.89-4.44,3-.78,2.77-1.33,10.2-1.77,14s-1.89,5-4.66,5c-3.55,0-8-4-12.21-4a2,2,0,0,0-2.21,2.11v.45c0,1.77-1.45,2.21-3.33,2.21-3.22,0-3.77-2.1-3.77-4.1,0-15.31,11.09-47.14,11.09-59.57,0-3-.67-3.66-2.33-3.66-1.22,0-2.22.67-2.88,2.55a24.29,24.29,0,0,0-.78,3.33c-.22,1.78-.78,2.66-2.66,2.66-1.67,0-3-1.33-3-4.1,0-9.87,6.44-15.09,16.42-15.09,12.09,0,14.64,5.55,14.53,15,0,7.43-7.76,19.74-7.76,24.4,0,1.67,1,2.11,1.88,2.11s1.33-.44,1.89-2.22c4.66-14.09,10.76-23.63,24.51-23.63,12.87,0,17.2,5,17.2,14.31C265.49,51.36,257.83,58.57,233.76,60.46Zm-7.87-4.66c0,1.44.55,2.22,2.32,2.22,7.33,0,16.2-5.22,16.2-11,0-2.89-1.11-4.89-5-4.89C231.32,42.15,225.89,51.25,225.89,55.8Z" style="fill:none;stroke:#010101;stroke-width:2px"/><path d="M277.31,36.5c0-1.56-.44-2.22-1.33-2.22-.66,0-1.11.11-1.44.11-1.78,0-2.77-1.78-2.77-3.44a3.1,3.1,0,0,1,3.43-3.44c6.77,0,10.54-5.66,17.53-12.87a6.12,6.12,0,0,1,4.33-2.21,2.71,2.71,0,0,1,2.66,3c0,2.11-.44,6.43-.44,9.43,0,2,.88,3,3.32,3s5.44-.22,8.1-.22c2,0,3.11,1.89,3.11,3.66s-1,3.77-3.44,3.77-5.55-.66-7.88-.66c-2.1,0-4,1.44-4.54,4.33-1.67,9.09-4.22,24.62-4.22,31.39,0,3.22.89,5.21,3.44,5.21,2.77,0,4.77-2.22,4.77-6.76,0-2.78-.56-4.89-.56-6,0-2.22,1-4.11,3.66-4.11s3.89,1.11,3.89,6.43c0,17.53-6.22,24.19-20.08,24.19-11.87,0-17.08-6.77-17.08-17.64C271.77,61.35,277.31,43,277.31,36.5Z" style="fill:none;stroke:#010101;stroke-width:2px"/><path d="M340.74,26.4c11.65,0,17.19,5.11,28.18,5.11a1.78,1.78,0,0,0,2-1.89v-.33c0-1.89,1.45-2.55,3.33-2.55,3.22,0,3.77,2.1,3.77,4.1,0,9.21-7.21,32.72-7.21,43.71,0,2.88.89,3.88,2.66,3.88,1.34,0,2.33-.78,2.89-2.55a19.58,19.58,0,0,0,.78-3.33c.33-1.78,1.1-2.66,2.66-2.66s3,.88,3,4.1c0,9.87-6.21,15.09-16,15.09s-13.87-3.66-13.87-11.54c0-5.55,2.22-10.09,2.22-12.31a1.63,1.63,0,0,0-1.77-1.78c-1.11,0-1.67.45-2.11,1.89-4,14-6.88,23.74-21.19,23.74-12.2,0-16.42-7-16.42-20C313.67,44.71,323.21,26.4,340.74,26.4Zm6.88,7.44c-7.32,0-13.42,15.86-13.42,31.28,0,5.65,1.44,7.76,4.21,7.76,4,0,6.77-4.1,9.76-13.09,2-5.88,4.33-16.3,4.33-20.41C352.5,36.5,351.28,33.84,347.62,33.84Z" style="fill:none;stroke:#010101;stroke-width:2px"/><path d="M408.74,74.55c0,2.88.89,3.88,3.11,3.88a3.58,3.58,0,0,0,3.66-2.55,18.31,18.31,0,0,0,.77-3.33c.34-1.78,1.11-2.66,2.66-2.66s3,.88,3,4.1c0,9.87-6.32,15.09-18.3,15.09s-15.42-5-15.42-12.65c0-11.65,7.65-26.62,7.65-35.61,0-2-1-3.32-2.77-3.32a3.25,3.25,0,0,0-3.22,2.55,18.08,18.08,0,0,0-.77,3.32C388.77,45.15,388,46,386.44,46s-3-.89-3-4.11c0-9.87,6.43-15.08,16.53-15.08,10.65,0,15.86,3.55,15.86,11.75C415.84,50.92,408.74,66.34,408.74,74.55Zm13.64-64.23c0,6.32-3.21,9.54-14.31,9.65-9.2.11-13.2-2.33-13.2-8.32C394.87,4.22,402,1,410.18,1,417.28,1,422.38,3.88,422.38,10.32Z" style="fill:none;stroke:#010101;stroke-width:2px"/><path d="M448.54,78.43c1.55,0,2.44-.78,3.22-2.55a14.79,14.79,0,0,0,.77-3.33c.23-1.78,1.22-2.66,2.67-2.66,1.77,0,3,.88,3,4.1,0,9.87-6.21,15.09-17.53,15.09-12.42,0-16-5.88-16-14.76,0-17.52,10.54-38.27,10.54-49.58,0-3-.78-3.66-2.44-3.66s-2.55.66-3.22,2.55A25.47,25.47,0,0,0,428.8,27c-.23,1.77-.78,2.66-2.67,2.66-1.66,0-3-1.33-3-4.1,0-9.88,6.43-15.09,16.41-15.09,10.21,0,15,5.21,15,15.31,0,17.75-8.65,36.94-8.65,48.81C445.88,77.1,446.65,78.43,448.54,78.43Z" style="fill:none;stroke:#010101;stroke-width:2px"/><path d="M521.09,61.57c0-6.66,4.88-13,14.42-13,8.32,0,14.86,5.88,14.86,16.42,0,13.2-8.43,24.73-32.28,24.73-22.4,0-31.72-8.87-31.72-22.18,0-16.75,18.3-25.41,32.61-29.73,1.55-.56,2.11-1,2.11-1.89s-.56-1.44-1.67-1.88a48.34,48.34,0,0,0-18.63-3.55c-7.88,0-9.76,2-9.76,4.1,0,1.44.66,2.44,2.21,2.44,1.78,0,3-.89,4.11-.89,1.66,0,2.55,1.11,2.55,2.78s-2.11,3.44-6.32,3.44c-7.66,0-11.65-5.44-11.65-12.32,0-10.09,7.1-18.19,21.3-18.19,16.08,0,29.62,10,40,10,4.55,0,5.33-1.66,5.33-3.21s-1.33-2.44-3.44-2.44c-3.33,0-4.88,1.44-6.77,1.44a3.32,3.32,0,0,1-3.55-3.55c0-2.77,3.11-4.33,9-4.33,8.21,0,13.2,5.77,13.2,15.09s-5,15.64-14.64,15.64c-4.55,0-8.21-1.11-10.1-1.11-9,0-22.3,7.1-22.3,21.3,0,10.54,6.88,16.53,18.53,16.53,10,0,15.53-6.1,15.53-10.32A1.86,1.86,0,0,0,542.16,65a2.31,2.31,0,0,0-2,1.11c-2.22,3.54-5,5.65-10,5.65C525.41,71.77,521.09,68.44,521.09,61.57Z" style="fill:none;stroke:#010101;stroke-width:2px"/><path d="M581.18,74.55c0,2.88.88,3.88,3.1,3.88a3.56,3.56,0,0,0,3.66-2.55,17.74,17.74,0,0,0,.78-3.33c.33-1.78,1.11-2.66,2.66-2.66s3,.88,3,4.1c0,9.87-6.33,15.09-18.31,15.09s-15.42-5-15.42-12.65c0-11.65,7.66-26.62,7.66-35.61,0-2-1-3.32-2.77-3.32a3.23,3.23,0,0,0-3.22,2.55,17.52,17.52,0,0,0-.78,3.32c-.33,1.78-1.11,2.67-2.66,2.67s-3-.89-3-4.11c0-9.87,6.44-15.08,16.53-15.08,10.65,0,15.87,3.55,15.87,11.75C588.28,50.92,581.18,66.34,581.18,74.55Zm13.64-64.23c0,6.32-3.22,9.54-14.31,9.65-9.21.11-13.2-2.33-13.2-8.32,0-7.43,7.1-10.65,15.31-10.65C589.72,1,594.82,3.88,594.82,10.32Z" style="fill:none;stroke:#010101;stroke-width:2px"/><path d="M653.9,50.36a1.63,1.63,0,0,0,1.78,1.78c1.11,0,1.66-.45,2.1-1.89,4-14.2,7.66-23.85,23.52-23.85,12.65,0,16.75,6.1,16.75,13.42,0,11.65-8.1,24.19-8.1,34.73,0,2.88.89,3.88,3.11,3.88a3.58,3.58,0,0,0,3.66-2.55,18.62,18.62,0,0,0,.78-3.33c.33-1.78,1.11-2.66,2.66-2.66s3,.88,3,4.1c0,9.87-6.32,15.09-18.3,15.09s-15.42-5-15.42-12.65c0-10.65,5.44-22,5.44-29.39,0-2.22-1.22-3.89-3.44-3.89-3.33,0-6.32,1.78-8.65,7.66-4.33,11.31-3.44,22.52-3.44,32.17,0,4-1.89,5-4.66,5-3,0-6.77-4-10.32-4a2,2,0,0,0-2.22,2.11v.45c0,1.77-1.44,2.21-3.33,2.21-3.21,0-3.77-2.1-3.77-4.1,0-13.64,6.44-28.06,6.44-37.6,0-2.22-1.22-3.89-3.44-3.89-3.33,0-6.21,1.89-8.65,7.66C625.5,60.24,626,73,624.17,83c-.66,3.88-1.88,5-4.66,5-3.55,0-8-4-12.2-4a2,2,0,0,0-2.22,2.11v.45c0,1.77-1.44,2.21-3.33,2.21-3.21,0-3.77-2.1-3.77-4.1,0-14.42,8.43-32.72,8.43-43.82,0-2-1-3.32-2.77-3.32a3.25,3.25,0,0,0-3.22,2.55,18.08,18.08,0,0,0-.77,3.32C599.32,45.15,598.55,46,597,46s-3-.89-3-4.11c0-9.87,6.43-15.08,16.53-15.08,8.43,0,12.53,3.55,12.53,11.75,0,5.88-2.55,9.54-2.55,11.76a1.63,1.63,0,0,0,1.78,1.78c1.11,0,1.66-.45,2.1-1.89,4-14.2,7.66-23.85,20.75-23.85,9.32,0,11.31,5.66,11.31,12.2C656.45,44.48,653.9,48.14,653.9,50.36Z" style="fill:none;stroke:#010101;stroke-width:2px"/><path d="M732.61,89.63c-14.54,0-27-6.54-27-25,0-24.51,13.42-38.82,33.61-38.82,17.86,0,23.74,7,23.74,16,0,9.32-5.88,15.42-21.74,17.2-10.32,1.1-13.09,3.32-13.09,6.87,0,4.11,3.77,6.88,11.87,6.88,7.54,0,15.64-2.44,15.64-9,0-2.22,1.33-3.78,3.44-3.78,1.88,0,3.21,1.56,3.21,3.78C762.33,82.2,753.68,89.63,732.61,89.63ZM727.5,51.92c0,2.66,1.11,4.32,3.66,4.32,4.66,0,12.65-8.1,12.65-18.19,0-4.44-1.66-5.55-4.11-5.55C731.39,32.5,727.5,43.82,727.5,51.92Z" style="fill:none;stroke:#010101;stroke-width:2px"/></g></g></svg>